<?xml version="1.0" encoding="utf-8"?>
<!-- Generator: Adobe Illustrator 27.2.0, SVG Export Plug-In . SVG Version: 6.00 Build 0)  -->
<svg version="1.1" id="Layer_2_00000102528341214491458120000015891894839772079272_"
	 xmlns="http://www.w3.org/2000/svg" xmlns:xlink="http://www.w3.org/1999/xlink" x="0px" y="0px" viewBox="0 0 729.3 137.9"
	 style="enable-background:new 0 0 729.3 137.9;" xml:space="preserve">
<g id="Layer_1-2">
	<g>
		<path d="M583.3,137.9h-31.7c-38,0-69-30.9-69-68.9s30.9-69,69-69s69,30.9,69,68.9v67.6H593V68.9c0-22.9-18.5-41.4-41.4-41.4
			s-41.4,18.5-41.4,41.4s18.5,41.4,41.4,41.4h31.7L583.3,137.9L583.3,137.9z"/>
		<path d="M427.5,136.5h-27.6V68.9c0-38,30.9-68.9,69-68.9v27.6c-22.9,0-41.4,18.5-41.4,41.4L427.5,136.5L427.5,136.5z"/>
		<path d="M303.4,137.9c-38,0-68.9-30.9-68.9-68.9s30.9-69,68.9-69s68.9,30.9,68.9,68.9v13.8H293V55.2h49.3
			c-5.7-16.1-21-27.6-38.9-27.6c-22.9,0-41.4,18.5-41.4,41.4s18.5,41.4,41.4,41.4c13.8,0,26.7-6.9,34.4-18.4l22.9,15.4
			C347.9,126.4,326.5,137.9,303.4,137.9L303.4,137.9z"/>
		<path d="M729.3,27.6H662v108.9h67.4V27.6z"/>
		<polygon points="137.9,124.1 193.1,68.9 137.9,13.8 137.9,55.2 82.8,96.5 137.9,96.5 		"/>
		<polygon points="55.2,13.8 0,68.9 55.2,124.1 55.2,82.8 110.3,41.4 55.2,41.4 		"/>
	</g>
</g>
</svg>
