<?xml version="1.0" encoding="utf-8"?>
<!-- Generator: Adobe Illustrator 27.2.0, SVG Export Plug-In . SVG Version: 6.00 Build 0)  -->
<svg version="1.1" id="Layer_1" xmlns="http://www.w3.org/2000/svg" xmlns:xlink="http://www.w3.org/1999/xlink" x="0px" y="0px"
	 viewBox="0 0 2134 415" style="enable-background:new 0 0 2134 415;" xml:space="preserve">
<style type="text/css">
	.st0{fill-rule:evenodd;clip-rule:evenodd;fill:#4E5299;}
	.st1{fill-rule:evenodd;clip-rule:evenodd;fill:#8B8CFB;}
	.st2{fill:#11142B;}
	.st3{fill:#8B8CFB;}
</style>
<path class="st0" d="M491.8,0l207.9,207.5L491.8,415V303.5H287.1L491.8,153V0z M503.7,28.8V159L323.5,291.6h180.2v94.6l179-178.7
	L503.7,28.8z"/>
<path class="st1" d="M208.2,0v111.4h204.1L208.2,263.4V415L0,207.5L208.2,0z M16.9,207.5l179.4,178.7V257.4l180-134h-180V28.8
	L16.9,207.5z"/>
<path class="st2" d="M978.4,165.2v-40.3H833.8v42h82.9l-85,94.5v42.6h148.1v-42.3h-88.7L978.4,165.2z"/>
<path class="st2" d="M1182.1,124.9H1119l-62.1,66.5V40.3h-48.5V304h48.5v-47.4l20.1-21.2l47.4,68.6h59.4l-73.3-103.7L1182.1,124.9z"
	/>
<path class="st2" d="M1324.4,153.6l-36.2-6.8c-18.8-3.8-28-13.3-28-29c0-8.9,3.8-16.7,11.2-22.9c7.5-6.5,17.4-9.9,29-9.9
	c14.7,0,25.6,3.8,33.1,11.3c7.5,7.5,12.3,16,14,25.2l45-14c-1.7-7.8-4.4-15.7-8.5-22.9c-3.8-7.2-9.2-14.3-16.4-21.2
	c-7.2-7.2-16.4-12.6-28-16.7c-11.6-4.1-24.9-6.1-39.6-6.1c-24.9,0-46.1,7.8-63.8,23.2c-17.4,15.7-26.3,34.8-26.3,57.7
	c0,19.1,6.1,35.1,18.1,48.1c12.3,13,28.7,21.5,49.5,25.9l36.2,7.2c9.9,2,17.7,5.8,22.9,11.3c5.5,5.5,8.5,11.6,8.5,19.4
	c0,9.6-3.8,17.1-11.3,22.9c-7.2,5.8-17.4,8.9-30.7,8.9c-17.4,0-30.7-4.8-40.6-14c-9.5-9.2-14.7-20.8-16-34.5l-46.7,12.3
	c1,9.6,3.8,19.1,7.8,28.3c4.8,8.9,10.9,17.7,19.1,25.9c7.8,7.8,18.4,14.3,31.7,19.4c13,4.8,28,7.2,44,7.2c28.3,0,50.8-7.8,67.9-23.5
	c17.1-16,25.6-34.8,25.6-56c0-18.8-6.5-34.8-19.1-48.8C1365,167.2,1347.2,158,1324.4,153.6z"/>
<path class="st2" d="M1494.9,229.7l-47.8-104.7h-54.2l76.1,156.6l-42.3,93.1h51.5l112.6-249.7H1539L1494.9,229.7z"/>
<path class="st2" d="M1707.8,120.2c-10.6,0-20.5,2.4-30,6.8c-9.6,4.8-16.7,11.3-21.8,20.1v-22.2h-47.1v179.1h48.4V201
	c0-10.6,3.1-19.4,9.2-26.6c6.1-7.2,14.3-10.6,24.6-10.6c11.3,0,19.4,3.4,24.9,9.9c5.5,6.5,8.5,15,8.5,25.9v104.4h48.4V191.1
	c0-20.8-5.5-37.9-16.7-50.8C1745,127,1729,120.2,1707.8,120.2z"/>
<path class="st2" d="M1933,234.8c-2.4,8.2-7.2,15.4-14,21.5c-6.8,5.8-16,8.9-27.3,8.9c-13,0-23.9-4.4-32.8-13.3
	c-8.9-9.2-13-21.5-13-37.2c0-15.7,4.4-27.6,13-36.8c8.9-8.9,19.4-13.3,32.4-13.3c20.5,0,33.8,10.2,39.6,30.4l43.3-14.7
	c-4.1-16.7-13.3-31-28-42.6c-14.7-11.9-33.1-17.7-56-17.7c-26.3,0-48.4,8.9-66.2,27c-17.8,18.1-26.6,40.6-26.6,67.9
	c0,27.3,8.9,49.8,27,67.9c18.1,18.1,40.6,27,67.5,27c22.2,0,40.9-5.8,55.3-17.7c14.7-11.9,23.9-25.9,28.3-42.6L1933,234.8z"/>
<path class="st3" d="M1967.8,102.4v-86h17.1v86H1967.8z"/>
<path class="st3" d="M2002.6,32.8V16.5h17.7v16.4H2002.6z M2002.9,102.4V41.7h17.1v60.7H2002.9z"/>
<path class="st3" d="M2028.2,54.7V41.4h40.6v13.3H2028.2z M2038.8,102.4V24.6h17.1v77.8H2038.8z"/>
<path class="st3" d="M2106.7,103.8c-5.5,0-10.2-1-14-2.7c-3.8-1.7-7.2-4.1-9.6-7.2c-2.4-3.1-4.1-6.1-5.5-9.9
	c-1-3.8-1.7-7.5-1.7-11.6c0-3.8,0.7-7.8,1.7-11.6c1-3.8,2.7-7.2,5.1-10.2c2.4-3.1,5.5-5.5,9.2-7.5c3.8-1.7,8.2-2.7,13.6-2.7
	c4.8,0,8.9,0.7,12.3,2.4c3.4,1.7,6.5,3.8,8.9,6.8c2.4,2.7,4.1,6.1,5.5,9.9c1,3.8,1.7,7.8,1.7,12.6c0,0.7,0,1.7,0,2.7
	c0,1,0,2-0.3,3.4h-40.6c0.3,3.8,2,6.5,4.8,8.5c2.7,1.7,5.8,2.7,9.9,2.7c3.1,0,6.1-0.7,9.2-1.7c3.1-1,5.8-2.7,7.9-4.4l7.8,11.9
	c-3.1,2-5.8,3.8-8.5,5.1c-2.7,1.4-5.1,2.4-7.8,2.7C2113.2,103.4,2110.1,103.8,2106.7,103.8z M2117.3,69.3c0-0.7,0.3-1.4,0.3-2
	c0-0.7,0.3-1.4,0.3-1.7c0-1.7-0.3-3.1-1-4.4c-0.7-1.4-1.4-2.4-2.4-3.4c-1-1-2.4-1.7-3.8-2.4c-1.4-0.7-3.1-0.7-4.8-0.7
	c-2.7,0-5.1,0.7-7.2,1.7c-1.7,1-3.4,2.4-4.1,4.1c-1,1.7-1.7,3.4-1.7,5.1h30.4L2117.3,69.3z"/>
</svg>
